<svg xmlns="http://www.w3.org/2000/svg" viewBox="0 0 1200 900" role="img" aria-labelledby="title desc">
  <title id="title">Alphonso mango arrangement</title>
  <desc id="desc">Export-style composition of ripe Alphonso mangoes in warm studio light.</desc>
  <defs>
    <linearGradient id="bg" x1="0" y1="0" x2="1" y2="1">
      <stop offset="0%" stop-color="#fff4d8"/>
      <stop offset="55%" stop-color="#ffd477"/>
      <stop offset="100%" stop-color="#a95b1e"/>
    </linearGradient>
    <radialGradient id="mangoA" cx="50%" cy="40%" r="60%">
      <stop offset="0%" stop-color="#ffe58f"/>
      <stop offset="55%" stop-color="#ffb72f"/>
      <stop offset="100%" stop-color="#d26514"/>
    </radialGradient>
  </defs>
  <rect width="1200" height="900" fill="url(#bg)"/>
  <ellipse cx="580" cy="760" rx="430" ry="90" fill="#8f4a1c" opacity=".22"/>
  <g transform="translate(140 135)">
    <ellipse cx="220" cy="350" rx="145" ry="205" fill="url(#mangoA)" transform="rotate(-22 220 350)"/>
    <ellipse cx="430" cy="280" rx="145" ry="210" fill="url(#mangoA)" transform="rotate(18 430 280)"/>
    <ellipse cx="650" cy="360" rx="150" ry="220" fill="url(#mangoA)" transform="rotate(-10 650 360)"/>
    <ellipse cx="860" cy="270" rx="130" ry="190" fill="url(#mangoA)" transform="rotate(24 860 270)"/>
    <path d="M196 144c30-48 86-64 118-34-58 8-80 49-94 81" fill="#356f2e"/>
    <path d="M412 86c42-37 90-40 121-13-49 9-82 28-105 68" fill="#427d2f"/>
    <path d="M632 144c46-50 95-65 136-37-62 8-95 39-115 78" fill="#3f762f"/>
    <path d="M843 92c39-37 88-46 120-20-47 11-77 38-97 67" fill="#4c8036"/>
  </g>
</svg>
